# xmcd
#
# Track frame offsets:
# 150
# 11545
# 21453
# 30795
# 42882
# 54044
# 64083
# 73625
# 84967
# 95230
# 107497
# 116177
# 125662
# 140212
# 151335
# 164372
# 175099
# 186308
# 196367
# 207739
#
# Disc length: 2921 seconds
#
# Revision: 0
# Processed by: cddbd v1.4PL0 Copyright (c) Steve Scherf et al.
# Submitted via: Axialis_AX_CDPlayer 2.6
#
DISCID=1a0b6714
DTITLE=Katie Webster - Katie Webster
DYEAR=1900
DGENRE=
TTITLE0=No Bread No Meat
TTITLE1=I Want You To Love Me
TTITLE2=Baby Come On
TTITLE3=I Wanna Know
TTITLE4=Glory Of Love
TTITLE5=The Katie Lee
TTITLE6=Hoo Wee Sweet Daddy
TTITLE7=Hoo Wee Sweet Daddy
TTITLE8=I Feel So Low
TTITLE9=Goodbye Baby Im Still Leaving You Part 1
TTITLE10=Goodbye Baby Im Still Leaving You Part 2
TTITLE11=Don't You Know
TTITLE12=Mama Don't Allow
TTITLE13=Close To My Heart
TTITLE14=Hey Mr Love
TTITLE15=Open Arms
TTITLE16=Sea Of Love
TTITLE17=I Feel So Low
TTITLE18=Sunny Side Of Love
TTITLE19=Baby Baby
EXTD=
EXTT0=
EXTT1=
EXTT2=
EXTT3=
EXTT4=
EXTT5=
EXTT6=
EXTT7=
EXTT8=
EXTT9=
EXTT10=
EXTT11=
EXTT12=
EXTT13=
EXTT14=
EXTT15=
EXTT16=
EXTT17=
EXTT18=
EXTT19=
PLAYORDER=
